G75*
%MOIN*%
%OFA0B0*%
%FSLAX25Y25*%
%IPPOS*%
%LPD*%
%AMOC8*
5,1,8,0,0,1.08239X$1,22.5*
%
%ADD10C,0.00500*%
%ADD11C,0.00600*%
D10*
X0014088Y0017500D02*
X0013187Y0018401D01*
X0013187Y0020202D01*
X0014988Y0020202D02*
X0014988Y0018401D01*
X0014088Y0017500D01*
X0016133Y0017950D02*
X0016584Y0017500D01*
X0017485Y0017500D01*
X0017935Y0017950D01*
X0017935Y0018851D02*
X0017034Y0019302D01*
X0016584Y0019302D01*
X0016133Y0018851D01*
X0016133Y0017950D01*
X0017935Y0018851D02*
X0017935Y0020202D01*
X0016133Y0020202D01*
X0022115Y0019752D02*
X0022115Y0017950D01*
X0022566Y0017500D01*
X0023917Y0017500D01*
X0023917Y0020202D01*
X0022566Y0020202D01*
X0022115Y0019752D01*
X0025062Y0020202D02*
X0025062Y0017500D01*
X0026863Y0020202D01*
X0026863Y0017500D01*
X0028008Y0017950D02*
X0028008Y0018851D01*
X0028909Y0018851D01*
X0028008Y0017950D02*
X0028459Y0017500D01*
X0029360Y0017500D01*
X0029810Y0017950D01*
X0029810Y0019752D01*
X0029360Y0020202D01*
X0028459Y0020202D01*
X0028008Y0019752D01*
X0033463Y0020202D02*
X0034363Y0020202D01*
X0033913Y0020202D02*
X0033913Y0017500D01*
X0034363Y0017500D02*
X0033463Y0017500D01*
X0035508Y0017950D02*
X0035508Y0019752D01*
X0035959Y0020202D01*
X0037310Y0020202D01*
X0037310Y0017500D01*
X0035959Y0017500D01*
X0035508Y0017950D01*
X0034806Y0044925D02*
X0033905Y0044925D01*
X0033455Y0045375D01*
X0033455Y0047177D01*
X0033905Y0047627D01*
X0034806Y0047627D01*
X0035257Y0047177D01*
X0035257Y0045375D01*
X0034806Y0044925D01*
X0036401Y0045375D02*
X0036401Y0047177D01*
X0036852Y0047627D01*
X0038203Y0047627D01*
X0038203Y0044925D01*
X0036852Y0044925D01*
X0036401Y0045375D01*
X0029900Y0045375D02*
X0029449Y0044925D01*
X0028548Y0044925D01*
X0028098Y0045375D01*
X0028098Y0046276D01*
X0028999Y0046276D01*
X0028098Y0047177D02*
X0028548Y0047627D01*
X0029449Y0047627D01*
X0029900Y0047177D01*
X0029900Y0045375D01*
X0026953Y0044925D02*
X0026953Y0047627D01*
X0025151Y0044925D01*
X0025151Y0047627D01*
X0024007Y0047627D02*
X0022655Y0047627D01*
X0022205Y0047177D01*
X0022205Y0045375D01*
X0022655Y0044925D01*
X0024007Y0044925D01*
X0024007Y0047627D01*
X0018203Y0047627D02*
X0018203Y0046276D01*
X0017302Y0046727D01*
X0016852Y0046727D01*
X0016401Y0046276D01*
X0016401Y0045375D01*
X0016852Y0044925D01*
X0017753Y0044925D01*
X0018203Y0045375D01*
X0018203Y0047627D02*
X0016401Y0047627D01*
X0015257Y0047627D02*
X0015257Y0045826D01*
X0014356Y0044925D01*
X0013455Y0045826D01*
X0013455Y0047627D01*
D11*
X0011460Y0036477D02*
X0010159Y0036477D01*
X0010159Y0033875D01*
X0011460Y0033875D01*
X0011893Y0034309D01*
X0011893Y0036044D01*
X0011460Y0036477D01*
X0013105Y0035176D02*
X0013539Y0035610D01*
X0014406Y0035610D01*
X0014840Y0035176D01*
X0014840Y0034742D01*
X0013105Y0034742D01*
X0013105Y0034309D02*
X0013105Y0035176D01*
X0013105Y0034309D02*
X0013539Y0033875D01*
X0014406Y0033875D01*
X0016052Y0033875D02*
X0017353Y0033875D01*
X0017786Y0034309D01*
X0017353Y0034742D01*
X0016485Y0034742D01*
X0016052Y0035176D01*
X0016485Y0035610D01*
X0017786Y0035610D01*
X0018998Y0035176D02*
X0019432Y0035610D01*
X0020299Y0035610D01*
X0020733Y0035176D01*
X0020733Y0034742D01*
X0018998Y0034742D01*
X0018998Y0034309D02*
X0018998Y0035176D01*
X0018998Y0034309D02*
X0019432Y0033875D01*
X0020299Y0033875D01*
X0021945Y0033875D02*
X0021945Y0035610D01*
X0022812Y0035610D02*
X0021945Y0034742D01*
X0022812Y0035610D02*
X0023246Y0035610D01*
X0024400Y0035610D02*
X0025267Y0035610D01*
X0024834Y0036044D02*
X0024834Y0034309D01*
X0025267Y0033875D01*
X0025816Y0030810D02*
X0027117Y0030810D01*
X0026683Y0029942D02*
X0025816Y0029942D01*
X0025382Y0030376D01*
X0025816Y0030810D01*
X0026683Y0029942D02*
X0027117Y0029509D01*
X0026683Y0029075D01*
X0025382Y0029075D01*
X0024171Y0029942D02*
X0024171Y0030376D01*
X0023737Y0030810D01*
X0022869Y0030810D01*
X0022436Y0030376D01*
X0022436Y0029509D01*
X0022869Y0029075D01*
X0023737Y0029075D01*
X0024171Y0029942D02*
X0022436Y0029942D01*
X0021281Y0030810D02*
X0020848Y0030810D01*
X0019980Y0029942D01*
X0019980Y0029075D02*
X0019980Y0030810D01*
X0018769Y0030810D02*
X0017468Y0030810D01*
X0017034Y0030376D01*
X0017034Y0029509D01*
X0017468Y0029075D01*
X0018769Y0029075D01*
X0018769Y0031677D01*
X0015822Y0031677D02*
X0015822Y0029075D01*
X0014521Y0029075D01*
X0014087Y0029509D01*
X0014087Y0030376D01*
X0014521Y0030810D01*
X0015822Y0030810D01*
X0012876Y0030810D02*
X0012876Y0029075D01*
X0012876Y0030376D02*
X0011141Y0030376D01*
X0011141Y0030810D02*
X0012008Y0031677D01*
X0012876Y0030810D01*
X0011141Y0030810D02*
X0011141Y0029075D01*
X0016297Y0026877D02*
X0016297Y0024275D01*
X0016297Y0025142D02*
X0017598Y0025142D01*
X0018032Y0025576D01*
X0018032Y0026444D01*
X0017598Y0026877D01*
X0016297Y0026877D01*
X0017165Y0025142D02*
X0018032Y0024275D01*
X0019244Y0024709D02*
X0019677Y0024275D01*
X0020545Y0024275D01*
X0020978Y0024709D01*
X0020978Y0025576D01*
X0020111Y0025576D01*
X0019244Y0026444D02*
X0019244Y0024709D01*
X0019244Y0026444D02*
X0019677Y0026877D01*
X0020545Y0026877D01*
X0020978Y0026444D01*
X0022190Y0026877D02*
X0023491Y0026877D01*
X0023925Y0026444D01*
X0023925Y0026010D01*
X0023491Y0025576D01*
X0022190Y0025576D01*
X0023491Y0025576D02*
X0023925Y0025142D01*
X0023925Y0024709D01*
X0023491Y0024275D01*
X0022190Y0024275D01*
X0022190Y0026877D01*
X0028083Y0026877D02*
X0028083Y0024275D01*
X0029818Y0024275D01*
X0031030Y0024275D02*
X0032765Y0024275D01*
X0033976Y0024275D02*
X0035277Y0024275D01*
X0035711Y0024709D01*
X0035711Y0026444D01*
X0035277Y0026877D01*
X0033976Y0026877D01*
X0033976Y0024275D01*
X0031897Y0025576D02*
X0031030Y0025576D01*
X0031030Y0026877D02*
X0031030Y0024275D01*
X0031030Y0026877D02*
X0032765Y0026877D01*
X0033010Y0029075D02*
X0031709Y0029075D01*
X0031275Y0029509D01*
X0031709Y0029942D01*
X0033010Y0029942D01*
X0033010Y0030376D02*
X0033010Y0029075D01*
X0034222Y0029075D02*
X0035523Y0029075D01*
X0035957Y0029509D01*
X0035957Y0030376D01*
X0035523Y0030810D01*
X0034222Y0030810D01*
X0034222Y0031677D02*
X0034222Y0029075D01*
X0033010Y0030376D02*
X0032576Y0030810D01*
X0031709Y0030810D01*
X0030064Y0030810D02*
X0028762Y0030810D01*
X0028329Y0030376D01*
X0028762Y0029942D01*
X0029630Y0029942D01*
X0030064Y0029509D01*
X0029630Y0029075D01*
X0028329Y0029075D01*
X0029311Y0033875D02*
X0030612Y0033875D01*
X0031046Y0034309D01*
X0031046Y0034742D01*
X0030612Y0035176D01*
X0029311Y0035176D01*
X0029311Y0033875D02*
X0029311Y0036477D01*
X0030612Y0036477D01*
X0031046Y0036044D01*
X0031046Y0035610D01*
X0030612Y0035176D01*
X0032257Y0033875D02*
X0033125Y0033875D01*
X0032691Y0033875D02*
X0032691Y0036477D01*
X0032257Y0036477D01*
X0034222Y0035176D02*
X0034222Y0034309D01*
X0034656Y0033875D01*
X0035523Y0033875D01*
X0035957Y0034309D01*
X0035957Y0035176D01*
X0035523Y0035610D01*
X0034656Y0035610D01*
X0034222Y0035176D01*
X0037168Y0035176D02*
X0037168Y0034309D01*
X0037602Y0033875D01*
X0038469Y0033875D01*
X0038903Y0034309D01*
X0038903Y0035176D01*
X0038469Y0035610D01*
X0037602Y0035610D01*
X0037168Y0035176D01*
X0040115Y0035610D02*
X0040115Y0033875D01*
X0040982Y0033875D02*
X0040982Y0035176D01*
X0041416Y0035610D01*
X0041850Y0035176D01*
X0041850Y0033875D01*
X0040982Y0035176D02*
X0040549Y0035610D01*
X0040115Y0035610D01*
X0037602Y0031677D02*
X0037168Y0031677D01*
X0037602Y0031677D02*
X0037602Y0029075D01*
X0037168Y0029075D02*
X0038036Y0029075D01*
X0039133Y0029509D02*
X0039133Y0030376D01*
X0039566Y0030810D01*
X0040434Y0030810D01*
X0040867Y0030376D01*
X0040867Y0029942D01*
X0039133Y0029942D01*
X0039133Y0029509D02*
X0039566Y0029075D01*
X0040434Y0029075D01*
M02*
