G75*
%MOIN*%
%OFA0B0*%
%FSLAX25Y25*%
%IPPOS*%
%LPD*%
%AMOC8*
5,1,8,0,0,1.08239X$1,22.5*
%
%ADD10C,0.05800*%
%ADD11R,0.04737X0.05131*%
%ADD12C,0.08200*%
%ADD13C,0.05131*%
D10*
X0008185Y0021000D03*
X0008185Y0046000D03*
X0043185Y0046000D03*
X0043185Y0021000D03*
D11*
X0007560Y0029529D03*
X0007560Y0036221D03*
D12*
X0015685Y0011000D03*
X0025685Y0011000D03*
X0035685Y0011000D03*
X0035685Y0054125D03*
X0025685Y0054125D03*
X0015685Y0054125D03*
D13*
X0014464Y0038943D02*
X0018008Y0038943D01*
X0014464Y0038943D02*
X0014464Y0038943D01*
X0018008Y0038943D01*
X0018008Y0038943D01*
X0018008Y0032250D02*
X0014464Y0032250D01*
X0014464Y0032250D01*
X0018008Y0032250D01*
X0018008Y0032250D01*
X0018008Y0025557D02*
X0014464Y0025557D01*
X0014464Y0025557D01*
X0018008Y0025557D01*
X0018008Y0025557D01*
X0033362Y0025557D02*
X0036906Y0025557D01*
X0033362Y0025557D02*
X0033362Y0025557D01*
X0036906Y0025557D01*
X0036906Y0025557D01*
X0036906Y0032250D02*
X0033362Y0032250D01*
X0033362Y0032250D01*
X0036906Y0032250D01*
X0036906Y0032250D01*
X0036906Y0038943D02*
X0033362Y0038943D01*
X0033362Y0038943D01*
X0036906Y0038943D01*
X0036906Y0038943D01*
M02*
