G75*
%MOIN*%
%OFA0B0*%
%FSLAX25Y25*%
%IPPOS*%
%LPD*%
%AMOC8*
5,1,8,0,0,1.08239X$1,22.5*
%
%ADD10C,0.07400*%
%ADD11C,0.03400*%
%ADD12C,0.01000*%
D10*
X0015685Y0011000D03*
X0025685Y0011000D03*
X0035685Y0011000D03*
X0035685Y0054125D03*
X0025685Y0054125D03*
X0015685Y0054125D03*
D11*
X0020685Y0049125D03*
X0026310Y0036000D03*
X0042560Y0038500D03*
X0020685Y0015375D03*
D12*
X0012720Y0007036D02*
X0008639Y0007036D01*
X0009553Y0006372D02*
X0007528Y0007843D01*
X0006057Y0009868D01*
X0005283Y0012249D01*
X0005185Y0013500D01*
X0005185Y0018767D01*
X0006089Y0017863D01*
X0007449Y0017300D01*
X0008921Y0017300D01*
X0010281Y0017863D01*
X0011322Y0018904D01*
X0011885Y0020264D01*
X0011885Y0021736D01*
X0011322Y0023096D01*
X0010281Y0024137D01*
X0008921Y0024700D01*
X0007449Y0024700D01*
X0006089Y0024137D01*
X0005185Y0023233D01*
X0005185Y0043767D01*
X0006089Y0042863D01*
X0007449Y0042300D01*
X0008921Y0042300D01*
X0010281Y0042863D01*
X0011322Y0043904D01*
X0011885Y0045264D01*
X0011885Y0046736D01*
X0011322Y0048096D01*
X0010281Y0049137D01*
X0008921Y0049700D01*
X0007449Y0049700D01*
X0006089Y0049137D01*
X0005185Y0048233D01*
X0005185Y0051000D01*
X0005283Y0052251D01*
X0006057Y0054632D01*
X0007528Y0056657D01*
X0009553Y0058128D01*
X0011934Y0058902D01*
X0013185Y0059000D01*
X0014650Y0059000D01*
X0012909Y0058279D01*
X0011531Y0056901D01*
X0010785Y0055100D01*
X0010785Y0053150D01*
X0011531Y0051349D01*
X0012909Y0049971D01*
X0013985Y0049525D01*
X0013985Y0015600D01*
X0012909Y0015154D01*
X0011531Y0013776D01*
X0010785Y0011975D01*
X0010785Y0010025D01*
X0011531Y0008224D01*
X0012909Y0006846D01*
X0014710Y0006100D01*
X0016660Y0006100D01*
X0018461Y0006846D01*
X0019839Y0008224D01*
X0020577Y0010007D01*
X0020613Y0009782D01*
X0020866Y0009004D01*
X0021238Y0008275D01*
X0021719Y0007612D01*
X0022297Y0007034D01*
X0022960Y0006553D01*
X0023689Y0006181D01*
X0024467Y0005928D01*
X0025185Y0005814D01*
X0025185Y0010500D01*
X0026185Y0010500D01*
X0026185Y0005814D01*
X0026903Y0005928D01*
X0027681Y0006181D01*
X0028410Y0006553D01*
X0029073Y0007034D01*
X0029651Y0007612D01*
X0030132Y0008275D01*
X0030504Y0009004D01*
X0030757Y0009782D01*
X0030793Y0010007D01*
X0031531Y0008224D01*
X0032909Y0006846D01*
X0034710Y0006100D01*
X0036660Y0006100D01*
X0038461Y0006846D01*
X0039839Y0008224D01*
X0040585Y0010025D01*
X0040585Y0011975D01*
X0039839Y0013776D01*
X0038461Y0015154D01*
X0036660Y0015900D01*
X0034710Y0015900D01*
X0033635Y0015454D01*
X0028010Y0021079D01*
X0028010Y0033599D01*
X0028768Y0034357D01*
X0029210Y0035423D01*
X0029210Y0036577D01*
X0028768Y0037643D01*
X0027953Y0038458D01*
X0026887Y0038900D01*
X0025733Y0038900D01*
X0024667Y0038458D01*
X0023851Y0037643D01*
X0023410Y0036577D01*
X0023410Y0035423D01*
X0023851Y0034357D01*
X0024610Y0033599D01*
X0024610Y0019671D01*
X0031231Y0013050D01*
X0030793Y0011993D01*
X0030757Y0012218D01*
X0030504Y0012996D01*
X0030132Y0013725D01*
X0029651Y0014388D01*
X0029073Y0014966D01*
X0028410Y0015447D01*
X0027681Y0015819D01*
X0026903Y0016072D01*
X0026185Y0016186D01*
X0026185Y0011500D01*
X0025185Y0011500D01*
X0025185Y0016186D01*
X0024467Y0016072D01*
X0023689Y0015819D01*
X0022960Y0015447D01*
X0022297Y0014966D01*
X0021719Y0014388D01*
X0021238Y0013725D01*
X0020866Y0012996D01*
X0020613Y0012218D01*
X0020577Y0011993D01*
X0019839Y0013776D01*
X0018461Y0015154D01*
X0017385Y0015600D01*
X0017385Y0049525D01*
X0018461Y0049971D01*
X0019839Y0051349D01*
X0020577Y0053132D01*
X0020613Y0052907D01*
X0020866Y0052129D01*
X0021238Y0051400D01*
X0021719Y0050737D01*
X0022297Y0050159D01*
X0022960Y0049678D01*
X0023689Y0049306D01*
X0024467Y0049053D01*
X0025185Y0048939D01*
X0025185Y0053625D01*
X0026185Y0053625D01*
X0026185Y0048939D01*
X0026903Y0049053D01*
X0027681Y0049306D01*
X0028410Y0049678D01*
X0029073Y0050159D01*
X0029651Y0050737D01*
X0030132Y0051400D01*
X0030504Y0052129D01*
X0030757Y0052907D01*
X0030793Y0053132D01*
X0031531Y0051349D01*
X0032909Y0049971D01*
X0034710Y0049225D01*
X0036660Y0049225D01*
X0038461Y0049971D01*
X0039839Y0051349D01*
X0040585Y0053150D01*
X0040585Y0055100D01*
X0039839Y0056901D01*
X0038461Y0058279D01*
X0036720Y0059000D01*
X0038185Y0059000D01*
X0039436Y0058902D01*
X0041817Y0058128D01*
X0043842Y0056657D01*
X0045313Y0054632D01*
X0046086Y0052251D01*
X0046185Y0051000D01*
X0046185Y0048233D01*
X0045281Y0049137D01*
X0043921Y0049700D01*
X0042449Y0049700D01*
X0041089Y0049137D01*
X0040048Y0048096D01*
X0039485Y0046736D01*
X0039485Y0045264D01*
X0040048Y0043904D01*
X0041089Y0042863D01*
X0042449Y0042300D01*
X0043921Y0042300D01*
X0045281Y0042863D01*
X0046185Y0043767D01*
X0046185Y0023233D01*
X0045281Y0024137D01*
X0043921Y0024700D01*
X0042449Y0024700D01*
X0041089Y0024137D01*
X0040048Y0023096D01*
X0039485Y0021736D01*
X0039485Y0020264D01*
X0040048Y0018904D01*
X0041089Y0017863D01*
X0042449Y0017300D01*
X0043921Y0017300D01*
X0045281Y0017863D01*
X0046185Y0018767D01*
X0046185Y0013500D01*
X0046086Y0012249D01*
X0045313Y0009868D01*
X0043842Y0007843D01*
X0041817Y0006372D01*
X0039436Y0005598D01*
X0038185Y0005500D01*
X0013185Y0005500D01*
X0011934Y0005598D01*
X0009553Y0006372D01*
X0010583Y0006037D02*
X0024131Y0006037D01*
X0025185Y0006037D02*
X0026185Y0006037D01*
X0026185Y0007036D02*
X0025185Y0007036D01*
X0025185Y0008034D02*
X0026185Y0008034D01*
X0026185Y0009033D02*
X0025185Y0009033D01*
X0025185Y0010031D02*
X0026185Y0010031D01*
X0025685Y0011000D02*
X0025060Y0011000D01*
X0020685Y0015375D01*
X0020685Y0049125D01*
X0025685Y0049125D01*
X0025685Y0054125D01*
X0025185Y0052967D02*
X0026185Y0052967D01*
X0026185Y0051969D02*
X0025185Y0051969D01*
X0025185Y0050970D02*
X0026185Y0050970D01*
X0026185Y0049972D02*
X0025185Y0049972D01*
X0025685Y0049125D02*
X0036310Y0038500D01*
X0042560Y0038500D01*
X0046185Y0038988D02*
X0017385Y0038988D01*
X0017385Y0037990D02*
X0024198Y0037990D01*
X0023582Y0036991D02*
X0017385Y0036991D01*
X0017385Y0035993D02*
X0023410Y0035993D01*
X0023588Y0034994D02*
X0017385Y0034994D01*
X0017385Y0033996D02*
X0024213Y0033996D01*
X0024610Y0032997D02*
X0017385Y0032997D01*
X0017385Y0031999D02*
X0024610Y0031999D01*
X0024610Y0031000D02*
X0017385Y0031000D01*
X0017385Y0030001D02*
X0024610Y0030001D01*
X0024610Y0029003D02*
X0017385Y0029003D01*
X0017385Y0028004D02*
X0024610Y0028004D01*
X0024610Y0027006D02*
X0017385Y0027006D01*
X0017385Y0026007D02*
X0024610Y0026007D01*
X0024610Y0025009D02*
X0017385Y0025009D01*
X0017385Y0024010D02*
X0024610Y0024010D01*
X0024610Y0023012D02*
X0017385Y0023012D01*
X0017385Y0022013D02*
X0024610Y0022013D01*
X0024610Y0021015D02*
X0017385Y0021015D01*
X0017385Y0020016D02*
X0024610Y0020016D01*
X0025263Y0019018D02*
X0017385Y0019018D01*
X0017385Y0018019D02*
X0026261Y0018019D01*
X0027260Y0017021D02*
X0017385Y0017021D01*
X0017385Y0016022D02*
X0024315Y0016022D01*
X0025185Y0016022D02*
X0026185Y0016022D01*
X0027055Y0016022D02*
X0028258Y0016022D01*
X0028993Y0015024D02*
X0029257Y0015024D01*
X0029915Y0014025D02*
X0030256Y0014025D01*
X0030488Y0013027D02*
X0031221Y0013027D01*
X0030807Y0012028D02*
X0030787Y0012028D01*
X0030513Y0009033D02*
X0031196Y0009033D01*
X0031721Y0008034D02*
X0029958Y0008034D01*
X0029075Y0007036D02*
X0032720Y0007036D01*
X0035685Y0011000D02*
X0026310Y0020375D01*
X0026310Y0036000D01*
X0028407Y0033996D02*
X0046185Y0033996D01*
X0046185Y0034994D02*
X0029032Y0034994D01*
X0029210Y0035993D02*
X0046185Y0035993D01*
X0046185Y0036991D02*
X0029038Y0036991D01*
X0028422Y0037990D02*
X0046185Y0037990D01*
X0046185Y0039987D02*
X0017385Y0039987D01*
X0017385Y0040985D02*
X0046185Y0040985D01*
X0046185Y0041984D02*
X0017385Y0041984D01*
X0017385Y0042982D02*
X0040970Y0042982D01*
X0040017Y0043981D02*
X0017385Y0043981D01*
X0017385Y0044979D02*
X0039603Y0044979D01*
X0039485Y0045978D02*
X0017385Y0045978D01*
X0017385Y0046976D02*
X0039584Y0046976D01*
X0039998Y0047975D02*
X0017385Y0047975D01*
X0017385Y0048973D02*
X0024971Y0048973D01*
X0025185Y0048973D02*
X0026185Y0048973D01*
X0026399Y0048973D02*
X0040926Y0048973D01*
X0039460Y0050970D02*
X0046185Y0050970D01*
X0046109Y0051969D02*
X0040096Y0051969D01*
X0040509Y0052967D02*
X0045854Y0052967D01*
X0045529Y0053966D02*
X0040585Y0053966D01*
X0040585Y0054964D02*
X0045072Y0054964D01*
X0044346Y0055963D02*
X0040227Y0055963D01*
X0039778Y0056961D02*
X0043423Y0056961D01*
X0042048Y0057960D02*
X0038780Y0057960D01*
X0038715Y0058958D02*
X0036821Y0058958D01*
X0030861Y0052967D02*
X0030766Y0052967D01*
X0030422Y0051969D02*
X0031274Y0051969D01*
X0031910Y0050970D02*
X0029820Y0050970D01*
X0028815Y0049972D02*
X0032909Y0049972D01*
X0038461Y0049972D02*
X0046185Y0049972D01*
X0046185Y0048973D02*
X0045444Y0048973D01*
X0045400Y0042982D02*
X0046185Y0042982D01*
X0046185Y0032997D02*
X0028010Y0032997D01*
X0028010Y0031999D02*
X0046185Y0031999D01*
X0046185Y0031000D02*
X0028010Y0031000D01*
X0028010Y0030001D02*
X0046185Y0030001D01*
X0046185Y0029003D02*
X0028010Y0029003D01*
X0028010Y0028004D02*
X0046185Y0028004D01*
X0046185Y0027006D02*
X0028010Y0027006D01*
X0028010Y0026007D02*
X0046185Y0026007D01*
X0046185Y0025009D02*
X0028010Y0025009D01*
X0028010Y0024010D02*
X0040963Y0024010D01*
X0040014Y0023012D02*
X0028010Y0023012D01*
X0028010Y0022013D02*
X0039600Y0022013D01*
X0039485Y0021015D02*
X0028074Y0021015D01*
X0029073Y0020016D02*
X0039588Y0020016D01*
X0040001Y0019018D02*
X0030071Y0019018D01*
X0031070Y0018019D02*
X0040933Y0018019D01*
X0038591Y0015024D02*
X0046185Y0015024D01*
X0046185Y0016022D02*
X0033067Y0016022D01*
X0032068Y0017021D02*
X0046185Y0017021D01*
X0046185Y0018019D02*
X0045437Y0018019D01*
X0046185Y0014025D02*
X0039589Y0014025D01*
X0040149Y0013027D02*
X0046148Y0013027D01*
X0046015Y0012028D02*
X0040563Y0012028D01*
X0040585Y0011030D02*
X0045691Y0011030D01*
X0045366Y0010031D02*
X0040585Y0010031D01*
X0040174Y0009033D02*
X0044706Y0009033D01*
X0043981Y0008034D02*
X0039649Y0008034D01*
X0038650Y0007036D02*
X0042731Y0007036D01*
X0040787Y0006037D02*
X0027239Y0006037D01*
X0022295Y0007036D02*
X0018650Y0007036D01*
X0019649Y0008034D02*
X0021412Y0008034D01*
X0020857Y0009033D02*
X0020174Y0009033D01*
X0020585Y0010500D02*
X0020585Y0011500D01*
X0025185Y0011500D01*
X0025185Y0010500D01*
X0020585Y0010500D01*
X0020585Y0011030D02*
X0025185Y0011030D01*
X0025185Y0012028D02*
X0026185Y0012028D01*
X0026185Y0013027D02*
X0025185Y0013027D01*
X0025185Y0014025D02*
X0026185Y0014025D01*
X0026185Y0015024D02*
X0025185Y0015024D01*
X0022377Y0015024D02*
X0018591Y0015024D01*
X0019589Y0014025D02*
X0021455Y0014025D01*
X0020882Y0013027D02*
X0020149Y0013027D01*
X0020563Y0012028D02*
X0020583Y0012028D01*
X0015685Y0011000D02*
X0015685Y0054125D01*
X0019460Y0050970D02*
X0021550Y0050970D01*
X0020948Y0051969D02*
X0020096Y0051969D01*
X0020509Y0052967D02*
X0020604Y0052967D01*
X0022555Y0049972D02*
X0018461Y0049972D01*
X0013985Y0048973D02*
X0010444Y0048973D01*
X0011372Y0047975D02*
X0013985Y0047975D01*
X0013985Y0046976D02*
X0011785Y0046976D01*
X0011885Y0045978D02*
X0013985Y0045978D01*
X0013985Y0044979D02*
X0011767Y0044979D01*
X0011353Y0043981D02*
X0013985Y0043981D01*
X0013985Y0042982D02*
X0010400Y0042982D01*
X0013985Y0041984D02*
X0005185Y0041984D01*
X0005185Y0042982D02*
X0005970Y0042982D01*
X0005185Y0040985D02*
X0013985Y0040985D01*
X0013985Y0039987D02*
X0005185Y0039987D01*
X0005185Y0038988D02*
X0013985Y0038988D01*
X0013985Y0037990D02*
X0005185Y0037990D01*
X0005185Y0036991D02*
X0013985Y0036991D01*
X0013985Y0035993D02*
X0005185Y0035993D01*
X0005185Y0034994D02*
X0013985Y0034994D01*
X0013985Y0033996D02*
X0005185Y0033996D01*
X0005185Y0032997D02*
X0013985Y0032997D01*
X0013985Y0031999D02*
X0005185Y0031999D01*
X0005185Y0031000D02*
X0013985Y0031000D01*
X0013985Y0030001D02*
X0005185Y0030001D01*
X0005185Y0029003D02*
X0013985Y0029003D01*
X0013985Y0028004D02*
X0005185Y0028004D01*
X0005185Y0027006D02*
X0013985Y0027006D01*
X0013985Y0026007D02*
X0005185Y0026007D01*
X0005185Y0025009D02*
X0013985Y0025009D01*
X0013985Y0024010D02*
X0010407Y0024010D01*
X0011356Y0023012D02*
X0013985Y0023012D01*
X0013985Y0022013D02*
X0011770Y0022013D01*
X0011885Y0021015D02*
X0013985Y0021015D01*
X0013985Y0020016D02*
X0011782Y0020016D01*
X0011369Y0019018D02*
X0013985Y0019018D01*
X0013985Y0018019D02*
X0010437Y0018019D01*
X0012779Y0015024D02*
X0005185Y0015024D01*
X0005185Y0016022D02*
X0013985Y0016022D01*
X0013985Y0017021D02*
X0005185Y0017021D01*
X0005185Y0018019D02*
X0005933Y0018019D01*
X0005185Y0014025D02*
X0011781Y0014025D01*
X0011221Y0013027D02*
X0005222Y0013027D01*
X0005355Y0012028D02*
X0010807Y0012028D01*
X0010785Y0011030D02*
X0005679Y0011030D01*
X0006004Y0010031D02*
X0010785Y0010031D01*
X0011196Y0009033D02*
X0006664Y0009033D01*
X0007389Y0008034D02*
X0011721Y0008034D01*
X0005963Y0024010D02*
X0005185Y0024010D01*
X0005185Y0048973D02*
X0005926Y0048973D01*
X0005185Y0049972D02*
X0012909Y0049972D01*
X0011910Y0050970D02*
X0005185Y0050970D01*
X0005261Y0051969D02*
X0011274Y0051969D01*
X0010861Y0052967D02*
X0005516Y0052967D01*
X0005840Y0053966D02*
X0010785Y0053966D01*
X0010785Y0054964D02*
X0006298Y0054964D01*
X0007024Y0055963D02*
X0011143Y0055963D01*
X0011592Y0056961D02*
X0007947Y0056961D01*
X0009321Y0057960D02*
X0012590Y0057960D01*
X0012655Y0058958D02*
X0014549Y0058958D01*
X0045407Y0024010D02*
X0046185Y0024010D01*
M02*
